# xmcd CD database file
#
# Track frame offsets:
#	183
#	12255
#	21240
#	33328
#	46210
#	58280
#	68955
#	79578
#	90200
#	100935
#	112733
#	125075
#	139485
#	149863
#	160873
#	174178
#	187835
#	203448
#	214583
#	226715
#
# Disc length: 3196 seconds
#
# Revision: 4
# Processed by: cddbd v1.5.2PL0 Copyright (c) Steve Scherf et al.
# Submitted via: CDex 1.51
#
DISCID=070c7a14
DTITLE=Various Artist - It'll Never Be Over For Me - 20 Northern Soul Masterpieces
DYEAR=1998
DGENRE=Soul
TTITLE0=Doris Troy - I'll Do Anything
TTITLE1=Billy Prophet - What Can I Do
TTITLE2=Patrice Holloway - Stolen Hours
TTITLE3=Jerry Williams - If You Ask Me
TTITLE4=Casualeers - Dance Dance Dance
TTITLE5=J.D. Martin - By Yourself
TTITLE6=Alekander Patton - A Little Loving Sometime
TTITLE7=Cindy Scott - I Love You Baby
TTITLE8=Garnet Mimms - Looking For You
TTITLE9=Invitations - What's Wrong With My Baby
TTITLE10=Lenny Curtis - Nothing Can Help You Now
TTITLE11=Bobby Paris - I Walked Away
TTITLE12=Chuck Wood - Seven Days Too Long
TTITLE13=Teddy Randazzo - You Don't Need A Heart
TTITLE14=Gene McDaniels - Walk With A Winner
TTITLE15=Ray Pollard - The Drifter
TTITLE16=Kenny Lynch - Movin' Away
TTITLE17=Irma Thomas - Long After Tonight Is All Over
TTITLE18=Dean Parrish - I'm On My Way
TTITLE19=Timi Yuro - It'll Never Be Over For Me
EXTD=tim1701 YEAR: 1998
EXTT0=
EXTT1=
EXTT2=
EXTT3=
EXTT4=
EXTT5=
EXTT6=
EXTT7=
EXTT8=
EXTT9=
EXTT10=
EXTT11=
EXTT12=
EXTT13=
EXTT14=
EXTT15=
EXTT16=
EXTT17=
EXTT18=
EXTT19=
PLAYORDER=
